<mxfile host="app.diagrams.net" agent="Mozilla/5.0 (Windows NT 10.0; Win64; x64) AppleWebKit/537.36 (KHTML, like Gecko) Chrome/131.0.0.0 Safari/537.36" version="25.0.3">
  <diagram id="C5RBs43oDa-KdzZeNtuy" name="Page-1">
    <mxGraphModel dx="880" dy="434" grid="1" gridSize="10" guides="1" tooltips="1" connect="1" arrows="1" fold="1" page="1" pageScale="1" pageWidth="827" pageHeight="1169" math="0" shadow="0">
      <root>
        <mxCell id="WIyWlLk6GJQsqaUBKTNV-0" />
        <mxCell id="WIyWlLk6GJQsqaUBKTNV-1" parent="WIyWlLk6GJQsqaUBKTNV-0" />
        <mxCell id="LN-gpAXUTHgYmOjDrTxP-1" value="Start" style="ellipse;whiteSpace=wrap;html=1;" vertex="1" parent="WIyWlLk6GJQsqaUBKTNV-1">
          <mxGeometry x="40" y="280" width="120" height="80" as="geometry" />
        </mxCell>
        <mxCell id="LN-gpAXUTHgYmOjDrTxP-2" value="Set up&amp;nbsp;&lt;div&gt;( Interrupt Pin, Counter as 0 )&amp;nbsp;&lt;div style=&quot;display:none&quot; id=&quot;SDCloudData&quot;&gt;&lt;/div&gt;&lt;/div&gt;" style="rounded=1;whiteSpace=wrap;html=1;" vertex="1" parent="WIyWlLk6GJQsqaUBKTNV-1">
          <mxGeometry x="240" y="280" width="120" height="80" as="geometry" />
        </mxCell>
        <mxCell id="LN-gpAXUTHgYmOjDrTxP-3" value="Wait Interrupt&amp;nbsp;&lt;div style=&quot;display:none&quot; id=&quot;SDCloudData&quot;&gt;&lt;/div&gt;" style="shape=parallelogram;perimeter=parallelogramPerimeter;whiteSpace=wrap;html=1;fixedSize=1;" vertex="1" parent="WIyWlLk6GJQsqaUBKTNV-1">
          <mxGeometry x="440" y="280" width="120" height="80" as="geometry" />
        </mxCell>
        <mxCell id="LN-gpAXUTHgYmOjDrTxP-4" value="Flag ?" style="rhombus;whiteSpace=wrap;html=1;" vertex="1" parent="WIyWlLk6GJQsqaUBKTNV-1">
          <mxGeometry x="640" y="280" width="120" height="80" as="geometry" />
        </mxCell>
        <mxCell id="LN-gpAXUTHgYmOjDrTxP-5" value="Print count&lt;div&gt;number&lt;/div&gt;" style="rounded=1;whiteSpace=wrap;html=1;" vertex="1" parent="WIyWlLk6GJQsqaUBKTNV-1">
          <mxGeometry x="640" y="440" width="120" height="80" as="geometry" />
        </mxCell>
        <mxCell id="LN-gpAXUTHgYmOjDrTxP-6" value="Count On time&amp;nbsp;&lt;div style=&quot;display:none&quot; id=&quot;SDCloudData&quot;&gt;&lt;/div&gt;" style="rounded=1;whiteSpace=wrap;html=1;" vertex="1" parent="WIyWlLk6GJQsqaUBKTNV-1">
          <mxGeometry x="640" y="120" width="120" height="80" as="geometry" />
        </mxCell>
        <mxCell id="LN-gpAXUTHgYmOjDrTxP-13" value="" style="curved=1;endArrow=classic;html=1;rounded=0;exitX=1;exitY=0.5;exitDx=0;exitDy=0;entryX=1;entryY=0.5;entryDx=0;entryDy=0;" edge="1" parent="WIyWlLk6GJQsqaUBKTNV-1" source="LN-gpAXUTHgYmOjDrTxP-6" target="LN-gpAXUTHgYmOjDrTxP-5">
          <mxGeometry width="50" height="50" relative="1" as="geometry">
            <mxPoint x="770" y="160" as="sourcePoint" />
            <mxPoint x="770" y="480" as="targetPoint" />
            <Array as="points">
              <mxPoint x="830" y="330" />
            </Array>
          </mxGeometry>
        </mxCell>
        <mxCell id="LN-gpAXUTHgYmOjDrTxP-15" value="" style="endArrow=classic;html=1;rounded=0;exitX=0.5;exitY=0;exitDx=0;exitDy=0;" edge="1" parent="WIyWlLk6GJQsqaUBKTNV-1" source="LN-gpAXUTHgYmOjDrTxP-4">
          <mxGeometry width="50" height="50" relative="1" as="geometry">
            <mxPoint x="650" y="250" as="sourcePoint" />
            <mxPoint x="700" y="200" as="targetPoint" />
          </mxGeometry>
        </mxCell>
        <mxCell id="LN-gpAXUTHgYmOjDrTxP-26" value="&lt;font style=&quot;font-size: 16px;&quot;&gt;On&lt;/font&gt;" style="edgeLabel;html=1;align=center;verticalAlign=middle;resizable=0;points=[];" vertex="1" connectable="0" parent="LN-gpAXUTHgYmOjDrTxP-15">
          <mxGeometry x="-0.025" relative="1" as="geometry">
            <mxPoint as="offset" />
          </mxGeometry>
        </mxCell>
        <mxCell id="LN-gpAXUTHgYmOjDrTxP-17" value="" style="endArrow=classic;html=1;rounded=0;exitX=0.5;exitY=0;exitDx=0;exitDy=0;" edge="1" parent="WIyWlLk6GJQsqaUBKTNV-1">
          <mxGeometry width="50" height="50" relative="1" as="geometry">
            <mxPoint x="699.5" y="360" as="sourcePoint" />
            <mxPoint x="699.5" y="440" as="targetPoint" />
          </mxGeometry>
        </mxCell>
        <mxCell id="LN-gpAXUTHgYmOjDrTxP-27" value="&lt;font style=&quot;font-size: 16px;&quot;&gt;Off&lt;/font&gt;" style="edgeLabel;html=1;align=center;verticalAlign=middle;resizable=0;points=[];" vertex="1" connectable="0" parent="LN-gpAXUTHgYmOjDrTxP-17">
          <mxGeometry x="0.05" y="3" relative="1" as="geometry">
            <mxPoint x="-2" as="offset" />
          </mxGeometry>
        </mxCell>
        <mxCell id="LN-gpAXUTHgYmOjDrTxP-18" value="" style="curved=1;endArrow=classic;html=1;rounded=0;entryX=0.5;entryY=1;entryDx=0;entryDy=0;" edge="1" parent="WIyWlLk6GJQsqaUBKTNV-1" source="LN-gpAXUTHgYmOjDrTxP-5" target="LN-gpAXUTHgYmOjDrTxP-3">
          <mxGeometry width="50" height="50" relative="1" as="geometry">
            <mxPoint x="569.2893218813452" y="530" as="sourcePoint" />
            <mxPoint x="569.2893218813452" y="480" as="targetPoint" />
            <Array as="points">
              <mxPoint x="540" y="450" />
            </Array>
          </mxGeometry>
        </mxCell>
        <mxCell id="LN-gpAXUTHgYmOjDrTxP-19" value="" style="endArrow=classic;html=1;rounded=0;entryX=0;entryY=0.5;entryDx=0;entryDy=0;" edge="1" parent="WIyWlLk6GJQsqaUBKTNV-1" source="LN-gpAXUTHgYmOjDrTxP-1" target="LN-gpAXUTHgYmOjDrTxP-2">
          <mxGeometry width="50" height="50" relative="1" as="geometry">
            <mxPoint x="160" y="370" as="sourcePoint" />
            <mxPoint x="230.71067811865476" y="320" as="targetPoint" />
          </mxGeometry>
        </mxCell>
        <mxCell id="LN-gpAXUTHgYmOjDrTxP-20" value="" style="endArrow=classic;html=1;rounded=0;entryX=0;entryY=0.5;entryDx=0;entryDy=0;" edge="1" parent="WIyWlLk6GJQsqaUBKTNV-1" target="LN-gpAXUTHgYmOjDrTxP-3">
          <mxGeometry width="50" height="50" relative="1" as="geometry">
            <mxPoint x="360" y="319.5" as="sourcePoint" />
            <mxPoint x="440" y="319.5" as="targetPoint" />
          </mxGeometry>
        </mxCell>
        <mxCell id="LN-gpAXUTHgYmOjDrTxP-21" value="" style="endArrow=classic;html=1;rounded=0;entryX=0;entryY=0.5;entryDx=0;entryDy=0;" edge="1" parent="WIyWlLk6GJQsqaUBKTNV-1" target="LN-gpAXUTHgYmOjDrTxP-4">
          <mxGeometry width="50" height="50" relative="1" as="geometry">
            <mxPoint x="550" y="319.5" as="sourcePoint" />
            <mxPoint x="630" y="319.5" as="targetPoint" />
          </mxGeometry>
        </mxCell>
      </root>
    </mxGraphModel>
  </diagram>
</mxfile>
